<svg width="80" height="43" viewBox="0 0 80 43" fill="none" xmlns="http://www.w3.org/2000/svg">
<rect width="80" height="43" fill="#E5E5E5"/>
<rect width="1600" height="2929" transform="translate(-860 -2517)" fill="white"/>
<rect x="-44.5" y="-23.5" width="169" height="89" rx="3.5" stroke="#2196F3"/>
<path d="M12.402 12.8306H12.3993C10.1369 12.8306 8.30299 14.6177 8.30299 16.8223V16.8249C8.30299 19.0295 10.1369 20.8167 12.3993 20.8167H12.402C14.6643 20.8167 16.4982 19.0295 16.4982 16.8249V16.8223C16.4982 14.6177 14.6643 12.8306 12.402 12.8306Z" fill="#AFB1B8"/>
<path d="M42.6367 11.5545C42.6303 8.49242 41.3794 5.55752 39.1578 3.39207C36.9362 1.22661 33.9249 0.00695286 30.7827 0V0C27.6396 0.00556265 24.6268 1.22461 22.404 3.39022C20.1813 5.55582 18.9297 8.49151 18.9232 11.5545V11.5545V28.4402C18.9232 28.4402 42.634 25.8667 42.6367 11.5571V11.5545Z" fill="#AFB1B8"/>
<path d="M-8.39233e-05 33.9823C0.00561511 36.1129 0.876472 38.1547 2.42219 39.6615C3.96791 41.1683 6.06282 42.0177 8.24914 42.0239V42.0239C10.435 42.0177 12.5295 41.1687 14.0751 39.6625C15.6208 38.1562 16.492 36.1151 16.4984 33.9849V33.9849V22.2356C16.4984 22.2356 -8.39233e-05 24.0276 -8.39233e-05 33.9823ZM8.24914 36.0874C7.8219 36.0874 7.40425 35.964 7.04901 35.7326C6.69376 35.5013 6.41689 35.1726 6.25339 34.7879C6.08989 34.4032 6.04711 33.98 6.13046 33.5716C6.21381 33.1632 6.41955 32.7881 6.72166 32.4937C7.02377 32.1993 7.40868 31.9988 7.82771 31.9176C8.24675 31.8364 8.68109 31.8781 9.07581 32.0374C9.47054 32.1967 9.80791 32.4665 10.0453 32.8127C10.2826 33.1589 10.4093 33.5659 10.4093 33.9823C10.4104 34.2594 10.3553 34.534 10.2472 34.7903C10.1391 35.0466 9.9802 35.2796 9.7795 35.476C9.5788 35.6723 9.3403 35.828 9.07769 35.9343C8.81507 36.0406 8.53351 36.0953 8.24914 36.0953V36.0874Z" fill="#AFB1B8"/>
<text fill="#AFB1B8" xml:space="preserve" style="white-space: pre" font-family="Roboto" font-size="6" font-weight="bold" letter-spacing="0em"><tspan x="22.1418" y="36.0752">FOSTER PETERS</tspan></text>
</svg>
