<svg width="42" height="51" fill="none" xmlns="http://www.w3.org/2000/svg"><path d="M6 0l7.308 6.918h20.384v19.298L41 33.134V0H6z" fill="#AFB1B8"/><path d="M0 6.626v32.188h34V26.02L13.523 6.634 0 6.626zm27.523 27.48H5.38V12.457h1.565V32.64h20.578v1.465zM7.521 46.13l.818-1.685h.683l-1.191 2.246V48h-.62v-1.309l-1.194-2.246h.686l.818 1.685zm3.51 1.042H9.656L9.367 48h-.642l1.342-3.555h.555L11.967 48h-.645l-.29-.828zm-1.203-.498h1.03l-.515-1.474-.515 1.474zm3.638.367c0-.165.045-.315.134-.452.09-.139.266-.302.53-.49a2.257 2.257 0 01-.29-.445.876.876 0 01-.081-.354c0-.278.084-.498.254-.66.169-.162.397-.243.683-.243.26 0 .47.076.635.229.166.151.25.34.25.564a.786.786 0 01-.113.41 1.34 1.34 0 01-.369.371l-.242.176.687.81c.099-.195.148-.412.148-.651h.515c0 .438-.102.796-.307 1.076l.522.618h-.688l-.2-.237a1.47 1.47 0 01-.909.286c-.351 0-.633-.093-.844-.279a.932.932 0 01-.315-.73zm1.177.534c.2 0 .387-.067.561-.2l-.776-.916-.076.054c-.195.148-.293.318-.293.508 0 .164.053.298.159.4a.585.585 0 00.425.154zm-.328-2.29c0 .137.084.309.252.515l.27-.185.077-.061a.44.44 0 00.15-.345.312.312 0 00-.104-.236.37.37 0 00-.266-.1.348.348 0 00-.276.117.432.432 0 00-.103.295zm6.458 1.558c-.036.379-.176.675-.42.888-.244.212-.569.318-.974.318-.283 0-.533-.067-.75-.2a1.333 1.333 0 01-.498-.574 2.068 2.068 0 01-.183-.862v-.332c0-.335.06-.63.178-.886.12-.256.29-.453.51-.591.224-.138.48-.207.772-.207.392 0 .708.106.947.32.24.212.379.514.418.903h-.615c-.03-.256-.105-.44-.225-.552-.119-.114-.294-.171-.525-.171-.268 0-.475.098-.62.295-.143.196-.216.483-.22.862v.315c0 .384.069.677.205.879.139.202.34.303.606.303.242 0 .425-.055.547-.164.122-.109.2-.29.232-.544h.615zm3.391-.528c0 .349-.06.655-.18.918-.121.262-.294.464-.518.606-.223.14-.48.21-.772.21-.288 0-.545-.07-.771-.21a1.405 1.405 0 01-.523-.603 2.125 2.125 0 01-.185-.901v-.2c0-.347.06-.653.183-.918.124-.265.297-.468.52-.608.225-.142.482-.212.771-.212.29 0 .546.07.77.21.224.138.397.338.52.6.122.26.183.564.185.91v.198zm-.618-.185c0-.394-.075-.696-.224-.906a.728.728 0 00-.633-.315.731.731 0 00-.627.315c-.15.209-.226.504-.23.886v.205c0 .391.076.693.228.906.153.213.364.32.634.32.274 0 .484-.104.63-.313.148-.208.222-.512.222-.913v-.185z" fill="#AFB1B8"/></svg>